HIERARCHY
ROOT Hips
{
    OFFSET   0.000000   0.000000   0.000000
    CHANNELS 6 Xposition Yposition Zposition Zrotation Xrotation Yrotation
    JOINT Chest
    {
        OFFSET   0.000000   8.007230   0.000000
        CHANNELS 3 Zrotation Xrotation Yrotation
        JOINT Chest2
        {
            OFFSET   0.000000  22.077100   0.000000
            CHANNELS 3 Zrotation Xrotation Yrotation
            JOINT Neck
            {
                OFFSET   0.000000  23.255100   0.000000
                CHANNELS 3 Zrotation Xrotation Yrotation
                JOINT Head
                {
                    OFFSET   0.000000  14.370100   1.956600
                    CHANNELS 3 Zrotation Xrotation Yrotation
                    End Site
                    {
                        OFFSET   0.000000  19.566000   0.000000
                    }
                }
            }
            JOINT LeftCollar
            {
                OFFSET   3.911900  19.017000  -0.467063
                CHANNELS 3 Zrotation Xrotation Yrotation
                JOINT LeftShoulder
                {
                    OFFSET  10.383700   0.000000   0.000000
                    CHANNELS 3 Zrotation Xrotation Yrotation
                    JOINT LeftElbow
                    {
                        OFFSET  26.662100   0.001193   0.000980
                        CHANNELS 3 Zrotation Xrotation Yrotation
                        JOINT LeftWrist
                        {
                            OFFSET  28.869000  -0.000059  -0.000082
                            CHANNELS 3 Zrotation Xrotation Yrotation
                            JOINT LeftFinger0
                            {
                                OFFSET   2.044650  -2.323450   3.252850
                                CHANNELS 3 Zrotation Xrotation Yrotation
                                JOINT LeftFinger01
                                {
                                    OFFSET   3.088130   0.000000   0.000000
                                    CHANNELS 3 Zrotation Xrotation Yrotation
                                    JOINT LeftFinger02
                                    {
                                        OFFSET   2.639460   0.000000   0.000000
                                        CHANNELS 3 Zrotation Xrotation Yrotation
                                        End Site
                                        {
                                            OFFSET   2.582190   0.000000   0.000000
                                        }
                                    }
                                }
                            }
                            JOINT LeftFinger1
                            {
                                OFFSET   8.364480   0.000000   3.252850
                                CHANNELS 3 Zrotation Xrotation Yrotation
                                JOINT LeftFinger11
                                {
                                    OFFSET   4.646930   0.000000   0.000000
                                    CHANNELS 3 Zrotation Xrotation Yrotation
                                    JOINT LeftFinger12
                                    {
                                        OFFSET   2.323470   0.000000   0.000000
                                        CHANNELS 3 Zrotation Xrotation Yrotation
                                        End Site
                                        {
                                            OFFSET   2.273050   0.000000   0.000000
                                        }
                                    }
                                }
                            }
                            JOINT LeftFinger2
                            {
                                OFFSET   8.364490   0.000016   1.078090
                                CHANNELS 3 Zrotation Xrotation Yrotation
                                JOINT LeftFinger21
                                {
                                    OFFSET   5.111610   0.000000   0.000000
                                    CHANNELS 3 Zrotation Xrotation Yrotation
                                    JOINT LeftFinger22
                                    {
                                        OFFSET   2.788150   0.000016   0.000000
                                        CHANNELS 3 Zrotation Xrotation Yrotation
                                        End Site
                                        {
                                            OFFSET   2.727660   0.000000   0.000000
                                        }
                                    }
                                }
                            }
                            JOINT LeftFinger3
                            {
                                OFFSET   7.899780   0.000015  -1.078090
                                CHANNELS 3 Zrotation Xrotation Yrotation
                                JOINT LeftFinger31
                                {
                                    OFFSET   4.646930   0.000000   0.000000
                                    CHANNELS 3 Zrotation Xrotation Yrotation
                                    JOINT LeftFinger32
                                    {
                                        OFFSET   2.323470   0.000000   0.000000
                                        CHANNELS 3 Zrotation Xrotation Yrotation
                                        End Site
                                        {
                                            OFFSET   2.273050   0.000000   0.000000
                                        }
                                    }
                                }
                            }
                            JOINT LeftFinger4
                            {
                                OFFSET   7.435090   0.000000  -3.252850
                                CHANNELS 3 Zrotation Xrotation Yrotation
                                JOINT LeftFinger41
                                {
                                    OFFSET   3.717550   0.000000   0.000000
                                    CHANNELS 3 Zrotation Xrotation Yrotation
                                    JOINT LeftFinger42
                                    {
                                        OFFSET   1.858770   0.000000   0.000000
                                        CHANNELS 3 Zrotation Xrotation Yrotation
                                        End Site
                                        {
                                            OFFSET   1.818440   0.000000   0.000000
                                        }
                                    }
                                }
                            }
                        }
                    }
                }
            }
            JOINT RightCollar
            {
                OFFSET  -3.911910  19.017000  -0.467062
                CHANNELS 3 Zrotation Xrotation Yrotation
                JOINT RightShoulder
                {
                    OFFSET -10.383700   0.000014   0.000000
                    CHANNELS 3 Zrotation Xrotation Yrotation
                    JOINT RightElbow
                    {
                        OFFSET -26.662100   0.001225   0.001091
                        CHANNELS 3 Zrotation Xrotation Yrotation
                        JOINT RightWrist
                        {
                            OFFSET -28.869000  -0.000020  -0.000085
                            CHANNELS 3 Zrotation Xrotation Yrotation
                            JOINT RightFinger0
                            {
                                OFFSET  -2.044650  -2.323490   3.252850
                                CHANNELS 3 Zrotation Xrotation Yrotation
                                JOINT RightFinger01
                                {
                                    OFFSET  -3.088130   0.000000   0.000000
                                    CHANNELS 3 Zrotation Xrotation Yrotation
                                    JOINT RightFinger02
                                    {
                                        OFFSET  -2.639460   0.000000   0.000000
                                        CHANNELS 3 Zrotation Xrotation Yrotation
                                        End Site
                                        {
                                            OFFSET  -2.582190   0.000000   0.000000
                                        }
                                    }
                                }
                            }
                            JOINT RightFinger1
                            {
                                OFFSET  -8.364480   0.000000   3.252850
                                CHANNELS 3 Zrotation Xrotation Yrotation
                                JOINT RightFinger11
                                {
                                    OFFSET  -4.646930   0.000000   0.000000
                                    CHANNELS 3 Zrotation Xrotation Yrotation
                                    JOINT RightFinger12
                                    {
                                        OFFSET  -2.323470   0.000000   0.000000
                                        CHANNELS 3 Zrotation Xrotation Yrotation
                                        End Site
                                        {
                                            OFFSET  -2.273050   0.000000   0.000000
                                        }
                                    }
                                }
                            }
                            JOINT RightFinger2
                            {
                                OFFSET  -8.364480   0.000000   1.078090
                                CHANNELS 3 Zrotation Xrotation Yrotation
                                JOINT RightFinger21
                                {
                                    OFFSET  -5.111620   0.000000   0.000000
                                    CHANNELS 3 Zrotation Xrotation Yrotation
                                    JOINT RightFinger22
                                    {
                                        OFFSET  -2.788160   0.000000   0.000000
                                        CHANNELS 3 Zrotation Xrotation Yrotation
                                        End Site
                                        {
                                            OFFSET  -2.727660   0.000000   0.000000
                                        }
                                    }
                                }
                            }
                            JOINT RightFinger3
                            {
                                OFFSET  -7.899780   0.000000  -1.078090
                                CHANNELS 3 Zrotation Xrotation Yrotation
                                JOINT RightFinger31
                                {
                                    OFFSET  -4.646930   0.000000   0.000000
                                    CHANNELS 3 Zrotation Xrotation Yrotation
                                    JOINT RightFinger32
                                    {
                                        OFFSET  -2.323470   0.000000   0.000000
                                        CHANNELS 3 Zrotation Xrotation Yrotation
                                        End Site
                                        {
                                            OFFSET  -2.273050   0.000000   0.000000
                                        }
                                    }
                                }
                            }
                            JOINT RightFinger4
                            {
                                OFFSET  -7.435090   0.000000  -3.252850
                                CHANNELS 3 Zrotation Xrotation Yrotation
                                JOINT RightFinger41
                                {
                                    OFFSET  -3.717550   0.000000   0.000000
                                    CHANNELS 3 Zrotation Xrotation Yrotation
                                    JOINT RightFinger42
                                    {
                                        OFFSET  -1.858760   0.000000   0.000000
                                        CHANNELS 3 Zrotation Xrotation Yrotation
                                        End Site
                                        {
                                            OFFSET  -1.818440   0.000000   0.000000
                                        }
                                    }
                                }
                            }
                        }
                    }
                }
            }
        }
    }
    JOINT LeftHip
    {
        OFFSET   9.783030   0.000000   0.000000
        CHANNELS 3 Zrotation Xrotation Yrotation
        JOINT LeftKnee
        {
            OFFSET   0.000063 -41.789100   0.000608
            CHANNELS 3 Zrotation Xrotation Yrotation
            JOINT LeftAnkle
            {
                OFFSET   0.000048 -41.133200  -0.000184
                CHANNELS 3 Zrotation Xrotation Yrotation
                JOINT LeftToe
                {
                    OFFSET   0.000000  -6.358960  14.674500
                    CHANNELS 3 Zrotation Xrotation Yrotation
                    End Site
                    {
                        OFFSET   0.000000   0.000000   3.913200
                    }
                }
            }
        }
    }
    JOINT RightHip
    {
        OFFSET  -9.783030   0.000000   0.000000
        CHANNELS 3 Zrotation Xrotation Yrotation
        JOINT RightKnee
        {
            OFFSET   0.000071 -41.789100   0.001239
            CHANNELS 3 Zrotation Xrotation Yrotation
            JOINT RightAnkle
            {
                OFFSET   0.000037 -41.133200  -0.000166
                CHANNELS 3 Zrotation Xrotation Yrotation
                JOINT RightToe
                {
                    OFFSET   0.000000  -6.358960  14.674500
                    CHANNELS 3 Zrotation Xrotation Yrotation
                    End Site
                    {
                        OFFSET   0.000000   0.000000   3.913200
                    }
                }
            }
        }
    }
}
MOTION
Frames: 4
Frame Time:   0.016667
  0.460802  89.565700   0.497488  -0.745580  -1.824490  -1.404840   1.026620   2.241380  -0.430723   2.072460   4.474590  -0.902635  -1.637650  -0.520463  -0.016362  -2.693170  -1.052590   1.932520  -5.973840   2.103960   9.995500 -78.817300   7.969030   0.992001  -1.288800  -0.217110 -13.016600  14.263000  -6.049360  -1.136100  39.218700  33.240800 -48.239600 -33.535600   0.006101   0.004080 -11.769000   0.008133   0.003101 -35.292300  -2.415270   3.407150 -28.934300  -0.004831  -0.004404 -20.254000  -0.000169  -0.001456 -31.662500  -3.694430   5.974510 -47.781600  -0.004444  -0.004661 -31.822500   0.000314  -0.009458 -28.472700  -4.409380   8.068980 -41.440600  -0.004058  -0.001697 -27.599400  -0.002643  -0.004290 -34.276300  -6.060580   8.805820 -52.115000  -0.001317  -0.002355 -34.708600  -0.001990  -0.006646   7.703990   4.164810   5.056820  72.466100  -4.672980  -2.050940   5.166260  -7.686540  10.882900 -27.142700  -2.750870   2.485200 -41.240400  30.759700  66.811500  24.211300   0.001569  -0.001267   7.098160  -0.004448  -0.003589  26.737100  -1.526570  -3.030710  21.908800   0.008553  -0.009669  15.328500   0.010196  -0.008630  27.240200  -1.553850  -3.017080  28.198800  -0.001257  -0.002767  18.780400  -0.000533  -0.009700  27.556200  -2.160430  -4.131580  29.894100   0.000983  -0.001302  19.909500   0.002570  -0.004930  30.337100  -2.358300  -4.022020  45.629800   0.001887  -0.005545  30.389500  -0.015130  -0.002629   2.073020   3.329360  -1.466420   0.155289   0.031569  11.661900  -3.159400  -1.684000   0.377937   0.000000   0.000000  -0.000000  -0.700760   3.499550  -4.734980  -0.015447   1.108800 -14.955900   0.899312  -2.010930  -3.295520   0.000000   0.000000   0.000000
  0.457219  89.565700   0.482518  -0.745212  -1.835710  -1.384790   1.021090   2.250510  -0.430729   2.061470   4.492900  -0.902636  -1.637430  -0.530395  -0.016352  -2.692150  -1.072690   1.956630  -5.973930   2.108910   9.986190 -78.790700   7.978370   0.979708  -1.282910  -0.234239 -13.015300  14.276700  -6.067720  -1.131160  39.219600  33.244000 -48.260700 -33.540100   0.006100   0.004089 -11.770800   0.008131   0.003106 -35.309000  -2.403190   3.387450 -28.947300  -0.004837  -0.004402 -20.263100  -0.000169  -0.001453 -31.667800  -3.694440   5.974630 -47.789700  -0.004447  -0.004657 -31.827900   0.000315  -0.009458 -28.474500  -4.403140   8.057300 -41.454800  -0.004056  -0.001695 -27.608900  -0.002643  -0.004290 -34.282800  -6.051300   8.789280 -52.122700  -0.001319  -0.002353 -34.713700  -0.001992  -0.006647   7.708740   4.174780   5.066000  72.453100  -4.648940  -2.050870   5.172360  -7.686720  10.878500 -27.114500  -2.703990   2.471290 -41.239000  30.761200  66.820900  24.211400   0.001563  -0.001255   7.099160  -0.004440  -0.003587  26.735600  -1.528180  -3.033200  21.907600   0.008550  -0.009664  15.329200   0.010193  -0.008628  27.241500  -1.555580  -3.019410  28.200800  -0.001258  -0.002766  18.781800  -0.000539  -0.009699  27.558000  -2.156810  -4.124240  29.897100   0.000980  -0.001291  19.911500   0.002569  -0.004934  30.342500  -2.355160  -4.014370  45.637600   0.001887  -0.005546  30.394700  -0.015132  -0.002627   2.073060   3.333240  -1.466970   0.158558   0.015997  11.646200  -3.161020  -1.658490   0.374481  -0.000000   0.000000  -0.000000  -0.700423   3.511410  -4.730880  -0.005542   1.109780 -14.970600   0.890868  -2.010650  -3.304750  -0.000000   0.000000   0.000000
  0.451248  89.565700   0.457149  -0.744620  -1.855070  -1.352060   1.011230   2.266040  -0.430736   2.041880   4.524040  -0.902521  -1.637220  -0.545220  -0.016326  -2.691160  -1.102660   1.996200  -5.974300   2.117250   9.968630 -78.744400   7.991360   0.959722  -1.274980  -0.260029 -13.011700  14.296500  -6.095510  -1.123870  39.215600  33.247200 -48.281700 -33.549800   0.006096   0.004101 -11.774900   0.008121   0.003116 -35.335700  -2.391110   3.367750 -28.968500  -0.004852  -0.004398 -20.277900  -0.000171  -0.001447 -31.678700  -3.694460   5.974750 -47.806100  -0.004455  -0.004650 -31.838900   0.000318  -0.009456 -28.476300  -4.396900   8.045620 -41.485100  -0.004052  -0.001688 -27.629100  -0.002643  -0.004291 -34.296800  -6.042030   8.772740 -52.141100  -0.001324  -0.002348 -34.725900  -0.001998  -0.006649   7.717040   4.190800   5.079130  72.440600  -4.613480  -2.050770   5.182030  -7.687100  10.866400 -27.071500  -2.640110   2.448700 -41.231600  30.758600  66.834200  24.212400   0.001551  -0.001238   7.106210  -0.004432  -0.003585  26.733600  -1.535240  -3.044860  21.906400   0.008544  -0.009655  15.334400   0.010186  -0.008622  27.246800  -1.562500  -3.031000  28.215200  -0.001260  -0.002762  18.791300  -0.000555  -0.009698  27.564200  -2.153190  -4.116900  29.917900   0.000973  -0.001264  19.925300   0.002566  -0.004946  30.366300  -2.352020  -4.006720  45.672800   0.001887  -0.005549  30.418100  -0.015137  -0.002623   2.072680   3.337110  -1.469600   0.162121   0.000423  11.623100  -3.165550  -1.632970   0.368003  -0.000000   0.000000   0.000000  -0.702147   3.523270  -4.725250   0.009682   1.117030 -14.992300   0.877391  -2.010170  -3.321390   0.000000   0.000000   0.000000
  0.446192  89.565600   0.435838  -0.740458  -1.871660  -1.326480   1.001300   2.279150  -0.429731   2.022100   4.550350  -0.900323  -1.637800  -0.554855  -0.016276  -2.691450  -1.122070   2.026250  -5.977650   2.123450   9.946550 -78.699700   7.995170   0.946505  -1.273400  -0.273924 -13.007600  14.306400  -6.111860  -1.121750  39.206800  33.244600 -48.279400 -33.563100   0.006086   0.004105 -11.781500   0.008097   0.003126 -35.356100  -2.400370   3.378430 -28.985600  -0.004874  -0.004394 -20.289900  -0.000175  -0.001438 -31.693100  -3.694490   5.974260 -47.827900  -0.004467  -0.004641 -31.853400   0.000322  -0.009452 -28.472400  -4.410680   8.070830 -41.530600  -0.004048  -0.001679 -27.659400  -0.002643  -0.004293 -34.316500  -6.058400   8.790910 -52.173500  -0.001332  -0.002336 -34.747500  -0.002008  -0.006659   7.726880   4.201370   5.085650  72.441400  -4.595050  -2.050980   5.187890  -7.683040  10.846000 -27.051400  -2.624810   2.433040 -41.189000  30.732000  66.824300  24.243200   0.001533  -0.001235   7.124430  -0.004437  -0.003585  26.760800  -1.550820  -3.071180  21.929400   0.008535  -0.009647  15.352700   0.010174  -0.008614  27.258900  -1.577210  -3.057740  28.269100  -0.001263  -0.002759  18.827200  -0.000579  -0.009692  27.576400  -2.161770  -4.131480  29.982500   0.000963  -0.001219  19.968300   0.002562  -0.004962  30.421300  -2.363830  -4.019380  45.756100   0.001888  -0.005557  30.473600  -0.015146  -0.002621   2.066360   3.306250  -1.475690   0.168704   0.057067  11.610900  -3.174150  -1.648640   0.360872  -0.000000   0.000000   0.000000  -0.708244   3.514840  -4.723500   0.019415   1.141150 -15.004200   0.867794  -2.009940  -3.338120  -0.000000   0.000000   0.000000
